<svg xmlns="http://www.w3.org/2000/svg" viewBox="0 0 1000 600"><path fill="#fff" d="M0 0h1000v600H0z"/><g transform="matrix(.98093 0 0 .98093 0 -10.286)"><circle r="166.667" cx="294.097" cy="316.319" fill="#fff"/><path d="M257.133 391.32v-150h29.583l22.917 89.791h.446V241.32h20.982v150h-24.196l-28.304-109.494h-.416V391.32h-21.012ZM544.097 389.236V243.403h22.917v59.375h24.595v-59.375h22.916v145.833H591.61v-65.625h-24.595v65.625h-22.917Zm87.5 0V243.403h33.97q17.708 0 25.84 8.217 8.101 8.247 8.101 25.319v8.97q0 22.714-14.988 28.732v.434q8.333 2.489 11.776 10.214 3.444 7.697 3.444 20.602v25.637q0 6.25.405 10.098.405 3.849 2.083 7.61h-23.322q-1.273-3.53-1.678-6.655-.405-3.125-.405-11.256v-26.678q0-9.983-3.24-13.947-3.242-3.964-11.14-3.964h-7.93v62.5h-22.916Zm22.917-83.333h8.333q6.887 0 10.33-3.53 3.414-3.56 3.414-11.893v-11.255q0-7.9-2.806-11.459-2.807-3.53-8.854-3.53h-10.417v41.667Zm61.053 83.333V243.403h32.697l14.583 104.369h.434l14.584-104.37h32.696v145.834H788.89V278.82h-.405l-16.667 110.417h-19.184L735.966 278.82h-.405v110.417h-19.994Zm141.87 2.083q-16.667 0-25.203-9.49-8.536-9.462-8.536-27.17v-8.334h21.643v9.983q0 14.178 11.893 14.178 5.816 0 8.854-3.443 3.01-3.443 3.01-11.14 0-9.173-4.167-16.146-4.167-6.973-15.423-16.782-14.15-12.5-19.792-22.599-5.613-10.098-5.613-22.8 0-17.304 8.738-26.766 8.768-9.49 25.434-9.49 16.465 0 24.885 9.49 8.449 9.462 8.449 27.17v6.048h-21.673v-7.494q0-7.495-2.922-10.938-2.923-3.443-8.536-3.443-11.458 0-11.458 13.947 0 7.928 4.282 14.814 4.254 6.858 15.51 16.667 14.38 12.5 19.791 22.685 5.41 10.214 5.41 23.959 0 17.94-8.853 27.517-8.854 9.577-25.724 9.577Z" fill="#08f"/></g></svg>